<?xml version="1.0" encoding="UTF-8"?>
<svg id="Capa_1" data-name="Capa 1" xmlns="http://www.w3.org/2000/svg" viewBox="0 0 186.94 181.52">
  <defs>
    <style>
      .cls-1 {
        fill: #000;
        stroke-width: 0px;
      }
      @media (prefers-color-scheme: dark) {
        .cls-1 {
          fill: #fff;
        }
      }
    </style>
  </defs>
  <path class="cls-1" d="M81.1,104.12v7.51c0,23.26-6.16,33.86-21.9,33.86s-22.06-10.6-22.06-34.21h-11.63v2.4c0,27.19,8.38,42.93,33.86,42.93,21.37,0,30.8-11.89,33.07-32.04l-11.34-20.45ZM149.48,24.9l-48.43,86.25-8.03-14.3-11.92-21.23-21.78-38.79h21.77v30.84h.01v1.78l11.92,21.5V31.88l-3.94-6.98h-40.62l-3.92,6.98,36.56,65.9,11.79,21.25,3.65,6.58h9.02l55.87-100.71h-11.95Z"/>
</svg>